<svg width="54" height="56" viewBox="0 0 54 56" fill="none" xmlns="http://www.w3.org/2000/svg">
<g clip-path="url(#clip0_286_3)">
<path d="M50.0175 28C49.5148 26.5461 48.7105 25.2242 47.6614 24.1278C46.6123 23.0314 45.3439 22.1871 43.9459 21.6545L43.875 15.75C43.875 7 35.5387 0 25.3125 0C15.0863 0 6.75 7 6.75 15.75V21.63C4.78215 22.3547 3.0779 23.6915 1.86985 25.458C0.661797 27.2244 0.00880601 29.3344 0 31.5L0 35C0 37.7848 1.06674 40.4555 2.96554 42.4246C4.86435 44.3938 7.43968 45.5 10.125 45.5H13.5V21H10.125V15.75C10.125 8.995 16.875 3.5 25.3125 3.5C33.75 3.5 40.5 8.995 40.5 15.75V21H37.125V45.5H40.5C43.1853 45.5 45.7607 44.3938 47.6595 42.4246C49.5583 40.4555 50.625 37.7848 50.625 35V41.055C50.625 44.0904 49.4623 47.0015 47.3926 49.1478C45.3229 51.2942 42.5157 52.5 39.5887 52.5H33.75C33.75 51.5717 33.3944 50.6815 32.7615 50.0251C32.1285 49.3687 31.2701 49 30.375 49H27C26.1049 49 25.2465 49.3687 24.6135 50.0251C23.9806 50.6815 23.625 51.5717 23.625 52.5C23.625 53.4283 23.9806 54.3185 24.6135 54.9749C25.2465 55.6313 26.1049 56 27 56H39.5887C43.4108 56 47.0764 54.4254 49.779 51.6227C52.4817 48.82 54 45.0187 54 41.055V28H50.0175Z" fill="url(#paint0_linear_286_3)"/>
</g>
<defs>
<linearGradient id="paint0_linear_286_3" x1="27" y1="0" x2="27" y2="56" gradientUnits="userSpaceOnUse">
<stop stop-color="#E17D21"/>
<stop offset="1" stop-color="#E4381C"/>
</linearGradient>
<clipPath id="clip0_286_3">
<rect width="54" height="56" fill="white"/>
</clipPath>
</defs>
</svg>
