<svg width="50" height="50" viewBox="0 0 50 50" fill="none" xmlns="http://www.w3.org/2000/svg">
<path d="M15.4427 25C12.6302 25.093 10.3299 26.2835 8.54167 28.5714H5.05208C3.62847 28.5714 2.43056 28.1948 1.45833 27.4414C0.486111 26.6881 0 25.5859 0 24.135C0 17.5688 1.07639 14.2857 3.22917 14.2857C3.33333 14.2857 3.71094 14.481 4.36198 14.8717C5.01302 15.2623 5.85937 15.6576 6.90104 16.0575C7.94271 16.4574 8.97569 16.6574 10 16.6574C11.1632 16.6574 12.3177 16.4435 13.4635 16.0156C13.3767 16.7039 13.3333 17.3177 13.3333 17.8571C13.3333 20.4427 14.0365 22.8237 15.4427 25ZM43.3333 42.7734C43.3333 45.0056 42.6997 46.768 41.4323 48.0608C40.1649 49.3536 38.4809 50 36.3802 50H13.6198C11.5191 50 9.83507 49.3536 8.56771 48.0608C7.30035 46.768 6.66667 45.0056 6.66667 42.7734C6.66667 41.7876 6.69705 40.825 6.75781 39.8856C6.81858 38.9462 6.9401 37.9325 7.1224 36.8443C7.30469 35.7561 7.53472 34.747 7.8125 33.817C8.09028 32.8869 8.46354 31.9801 8.93229 31.0965C9.40104 30.213 9.93924 29.4596 10.5469 28.8365C11.1545 28.2134 11.8967 27.7158 12.7734 27.3437C13.6502 26.9717 14.6181 26.7857 15.6771 26.7857C15.8507 26.7857 16.224 26.9857 16.7969 27.3856C17.3698 27.7855 18.0035 28.232 18.6979 28.7249C19.3924 29.2178 20.3212 29.6642 21.4844 30.0642C22.6476 30.4641 23.8194 30.6641 25 30.6641C26.1806 30.6641 27.3524 30.4641 28.5156 30.0642C29.6788 29.6642 30.6076 29.2178 31.3021 28.7249C31.9965 28.232 32.6302 27.7855 33.2031 27.3856C33.776 26.9857 34.1493 26.7857 34.3229 26.7857C35.3819 26.7857 36.3498 26.9717 37.2266 27.3437C38.1033 27.7158 38.8455 28.2134 39.4531 28.8365C40.0608 29.4596 40.599 30.213 41.0677 31.0965C41.5365 31.9801 41.9097 32.8869 42.1875 33.817C42.4653 34.747 42.6953 35.7561 42.8776 36.8443C43.0599 37.9325 43.1814 38.9462 43.2422 39.8856C43.303 40.825 43.3333 41.7876 43.3333 42.7734ZM16.6667 7.14286C16.6667 9.11458 16.0156 10.798 14.7135 12.1931C13.4115 13.5882 11.8403 14.2857 10 14.2857C8.15972 14.2857 6.58854 13.5882 5.28646 12.1931C3.98437 10.798 3.33333 9.11458 3.33333 7.14286C3.33333 5.17113 3.98437 3.48772 5.28646 2.09263C6.58854 0.697545 8.15972 0 10 0C11.8403 0 13.4115 0.697545 14.7135 2.09263C16.0156 3.48772 16.6667 5.17113 16.6667 7.14286ZM35 17.8571C35 20.8147 34.0234 23.3398 32.0703 25.4325C30.1172 27.5251 27.7604 28.5714 25 28.5714C22.2396 28.5714 19.8828 27.5251 17.9297 25.4325C15.9766 23.3398 15 20.8147 15 17.8571C15 14.8996 15.9766 12.3744 17.9297 10.2818C19.8828 8.18917 22.2396 7.14286 25 7.14286C27.7604 7.14286 30.1172 8.18917 32.0703 10.2818C34.0234 12.3744 35 14.8996 35 17.8571ZM50 24.135C50 25.5859 49.5139 26.6881 48.5417 27.4414C47.5694 28.1948 46.3715 28.5714 44.9479 28.5714H41.4583C39.6701 26.2835 37.3698 25.093 34.5573 25C35.9635 22.8237 36.6667 20.4427 36.6667 17.8571C36.6667 17.3177 36.6233 16.7039 36.5365 16.0156C37.6823 16.4435 38.8368 16.6574 40 16.6574C41.0243 16.6574 42.0573 16.4574 43.099 16.0575C44.1406 15.6576 44.987 15.2623 45.638 14.8717C46.2891 14.481 46.6667 14.2857 46.7708 14.2857C48.9236 14.2857 50 17.5688 50 24.135ZM46.6667 7.14286C46.6667 9.11458 46.0156 10.798 44.7135 12.1931C43.4115 13.5882 41.8403 14.2857 40 14.2857C38.1597 14.2857 36.5885 13.5882 35.2865 12.1931C33.9844 10.798 33.3333 9.11458 33.3333 7.14286C33.3333 5.17113 33.9844 3.48772 35.2865 2.09263C36.5885 0.697545 38.1597 0 40 0C41.8403 0 43.4115 0.697545 44.7135 2.09263C46.0156 3.48772 46.6667 5.17113 46.6667 7.14286Z" fill="url(#paint0_linear_286_5)"/>
<defs>
<linearGradient id="paint0_linear_286_5" x1="25" y1="0" x2="25" y2="50" gradientUnits="userSpaceOnUse">
<stop stop-color="#E17D21"/>
<stop offset="1" stop-color="#E41C1C" stop-opacity="0.67"/>
</linearGradient>
</defs>
</svg>
