<svg width="63" height="68" viewBox="0 0 63 68" fill="none" xmlns="http://www.w3.org/2000/svg">
<path d="M22.6321 61.029C22.8588 61.2942 22.9793 61.6453 22.9675 62.0059C22.9557 62.3664 22.8126 62.7074 22.5691 62.9547L19.8324 65.7169C19.588 65.962 19.2635 66.0923 18.9302 66.0793C18.5968 66.0663 18.2819 65.911 18.0546 65.6475L2.11682 47.108C1.89034 46.8426 1.77004 46.4915 1.78207 46.1309C1.79411 45.7703 1.9375 45.4294 2.18108 45.1823L4.92158 42.4242C5.04251 42.3027 5.18443 42.2081 5.33925 42.1458C5.49406 42.0835 5.65872 42.0548 5.82383 42.0612C5.98894 42.0677 6.15125 42.1092 6.30149 42.1833C6.45173 42.2575 6.58696 42.3629 6.69944 42.4936L22.6321 61.029ZM42.9685 26.145C43.195 26.4104 43.3153 26.7615 43.3033 27.1221C43.2913 27.4827 43.1479 27.8236 42.9043 28.0708L25.6801 45.438C25.4357 45.683 25.1112 45.8134 24.7779 45.8004C24.4445 45.7873 24.1296 45.6321 23.9022 45.3686L19.7908 40.58C19.5644 40.3146 19.4441 39.9635 19.4561 39.6029C19.4681 39.2423 19.6115 38.9014 19.8551 38.6543L37.0755 21.2871C37.1963 21.1656 37.3382 21.071 37.4929 21.0088C37.6476 20.9465 37.8121 20.9178 37.9771 20.9242C38.1421 20.9307 38.3044 20.9722 38.4545 21.0463C38.6046 21.1205 38.7397 21.2259 38.8521 21.3564L42.9685 26.145ZM28.4924 55.1171C28.9636 55.6651 28.9347 56.5315 28.4281 57.0428L25.6876 59.8036C25.5667 59.9251 25.4248 60.0197 25.27 60.082C25.1152 60.1443 24.9505 60.173 24.7854 60.1666C24.6203 60.1601 24.458 60.1187 24.3077 60.0445C24.1575 59.9703 24.0223 59.8649 23.9098 59.7343L7.98086 41.1948C7.75422 40.9295 7.6337 40.5785 7.6455 40.2179C7.65729 39.8573 7.80045 39.5163 8.04386 39.269L10.7793 36.5096C11.0237 36.2645 11.3482 36.1341 11.6816 36.1472C12.0149 36.1602 12.3298 36.3154 12.5572 36.5789L28.4924 55.1171ZM55.0318 26.81C55.2581 27.0756 55.3782 27.4269 55.3659 27.7875C55.3536 28.1481 55.21 28.4889 54.9663 28.7358L52.227 31.4966C51.9826 31.7419 51.658 31.8725 51.3244 31.8598C50.9909 31.847 50.6756 31.692 50.4479 31.4286L34.5165 12.8932C34.2895 12.6281 34.1688 12.277 34.1806 11.9163C34.1924 11.5556 34.3358 11.2145 34.5795 10.9674L37.3263 8.19979C37.4471 8.07833 37.5889 7.98376 37.7436 7.9215C37.8983 7.85924 38.0629 7.83051 38.2279 7.83695C38.3929 7.84339 38.5551 7.88488 38.7052 7.95904C38.8554 8.0332 38.9905 8.13858 39.1029 8.26915L55.0318 26.81ZM60.8832 20.9076C61.1095 21.1734 61.2296 21.5247 61.2176 21.8854C61.2055 22.2461 61.0623 22.5872 60.819 22.8348L58.0848 25.5942C57.964 25.7157 57.8223 25.8104 57.6676 25.8728C57.5129 25.9352 57.3484 25.964 57.1834 25.9577C57.0184 25.9514 56.8562 25.91 56.706 25.836C56.5558 25.7619 56.4206 25.6567 56.3082 25.5262L40.3792 6.98259C40.1528 6.71698 40.0325 6.36579 40.0443 6.00508C40.0561 5.64437 40.199 5.3032 40.4422 5.05547L43.179 2.2906C43.2995 2.16892 43.4411 2.07413 43.5957 2.01167C43.7503 1.94921 43.9148 1.92031 44.0797 1.92663C44.2447 1.93295 44.4068 1.97436 44.5569 2.04849C44.707 2.12261 44.842 2.228 44.9543 2.35859L60.8832 20.9076Z" fill="url(#paint0_linear_286_8)"/>
<defs>
<linearGradient id="paint0_linear_286_8" x1="31.4998" y1="1.92578" x2="31.4998" y2="66.0802" gradientUnits="userSpaceOnUse">
<stop stop-color="#E17D21"/>
<stop offset="1" stop-color="#E41C1C" stop-opacity="0.72"/>
</linearGradient>
</defs>
</svg>
