<svg width="58" height="69" viewBox="0 0 58 69" fill="none" xmlns="http://www.w3.org/2000/svg">
<path d="M13.6616 3.52148H13.4917C13.2765 3.5417 13.0839 3.62256 12.914 3.73711C12.5628 3.96756 12.2683 4.39746 12.121 4.90553C11.9737 5.41359 11.9851 5.96613 12.1323 6.40682C12.2909 6.84615 12.5628 7.2208 13.1745 7.47551H13.1858L23.4491 11.7638C24.0495 12.0158 24.4573 11.9228 24.8085 11.691C25.1483 11.4578 25.4429 11.0239 25.5901 10.5118C25.7487 9.99967 25.7487 9.44174 25.5901 9.00106C25.4429 8.56037 25.171 8.18842 24.5593 7.93371L14.2733 3.67512C14.0468 3.57943 13.8429 3.53227 13.6616 3.52148ZM4.7022 8.84203H4.57759C4.46658 8.85551 4.35443 8.87168 4.24455 8.90402C3.80501 9.0334 3.41646 9.33797 3.18876 9.73148C2.9622 10.1237 2.84666 10.5967 3.00298 11.3473L5.60845 23.921C5.76251 24.6622 6.04912 25.0126 6.40142 25.2417C6.75486 25.4573 7.21818 25.5112 7.65771 25.3899C8.09837 25.2551 8.48806 24.9452 8.71576 24.5544C8.94459 24.1635 9.06013 23.6919 8.90607 22.9372L6.29833 10.3851C6.14314 9.63445 5.85654 9.28002 5.50197 9.05766C5.26974 8.91211 4.98994 8.83934 4.7022 8.84203ZM27.7425 9.84604C27.7311 10.3474 27.6519 10.842 27.5159 11.3096C27.4253 11.6115 27.312 11.9053 27.1761 12.1829C29.6229 13.0696 32.9987 14.4065 36.4991 16.1585C43.262 19.5546 50.3534 24.6352 52.0979 30.1876C53.4007 34.3518 53.3101 40.0794 51.9507 45.0926C50.6026 50.1059 48.0311 54.3106 44.6667 55.8604C43.4886 56.3995 42.1065 56.669 40.6112 56.7499C41.6081 53.8794 41.88 50.4967 41.5515 47.195C41.0644 42.276 39.2858 37.4514 36.2159 34.81C33.5198 32.492 29.3284 31.9126 25.5788 32.6672C23.6983 33.0446 21.9198 33.7723 20.4925 34.9448C19.0765 36.1038 17.989 37.7749 17.7284 39.8503C17.3206 43.179 18.3401 46.3325 20.13 48.9874C21.9311 51.6422 24.5026 53.8794 27.4026 55.6044C30.3933 57.3698 33.7237 58.5962 36.9409 59.0678C34.1655 62.3157 29.5776 63.4881 24.8311 62.9087C19.994 62.3292 15.0776 59.9169 12.0983 56.5342C9.01822 53.0438 7.98169 44.621 7.98396 37.0741C7.98396 33.5297 8.1788 30.201 8.38384 27.6674C8.30568 27.6944 8.22638 27.7213 8.14708 27.7483C7.55802 27.9235 6.93158 27.9504 6.32666 27.7887C6.12615 30.3358 5.94603 33.5837 5.9449 37.0606C5.9449 44.8366 6.6733 53.7446 10.688 58.2862C14.1147 62.1674 19.371 64.6876 24.6272 65.321C29.8835 65.9678 35.219 64.7145 38.5948 60.5368C38.912 60.146 39.2065 59.7147 39.4784 59.2565C41.5968 59.2835 43.6245 58.9331 45.3917 58.1245C49.5718 56.2108 52.4151 51.3188 53.8991 45.8338C55.3718 40.3489 55.519 34.2036 54.0011 29.352C51.8147 22.3307 44.2249 17.3983 37.2921 13.9213C33.6897 12.1155 30.2347 10.749 27.7425 9.84604ZM28.4561 34.81C31.0276 34.81 33.5425 35.5108 35.0151 36.7776C37.4054 38.8395 39.0933 43.0846 39.5237 47.4915C39.8522 50.8202 39.4671 54.1893 38.3796 56.7094C35.0831 56.4399 31.4581 55.2944 28.3089 53.4212C25.6128 51.8309 23.2679 49.7555 21.7272 47.4645C20.1753 45.187 19.439 42.7477 19.7448 40.2006C19.9034 38.8934 20.5604 37.8288 21.6479 36.9393C22.7468 36.0499 24.2647 35.3895 25.9186 35.0661C26.7456 34.8909 27.6065 34.81 28.4561 34.81Z" fill="url(#paint0_linear_286_12)"/>
<defs>
<linearGradient id="paint0_linear_286_12" x1="29.0023" y1="3.52148" x2="29.0023" y2="65.4814" gradientUnits="userSpaceOnUse">
<stop stop-color="#E17D21"/>
<stop offset="1" stop-color="#E41C1C" stop-opacity="0.79"/>
</linearGradient>
</defs>
</svg>
