<svg width="65" height="61" viewBox="0 0 65 61" fill="none" xmlns="http://www.w3.org/2000/svg">
<path d="M59.5832 45.75C59.5832 48.4464 58.4418 51.0323 56.4102 52.9389C54.3785 54.8455 51.623 55.9167 48.7498 55.9167H37.9165C35.0433 55.9167 32.2878 54.8455 30.2562 52.9389C28.2245 51.0323 27.0832 48.4464 27.0832 45.75V40.6667H59.5832V45.75ZM10.8332 7.625H37.9165C39.3531 7.625 40.7308 8.16056 41.7467 9.11387C42.7625 10.0672 43.3332 11.3601 43.3332 12.7083V35.5833H21.6665V48.2917H10.8332C9.39658 48.2917 8.01883 47.7561 7.00301 46.8028C5.98719 45.8495 5.4165 44.5565 5.4165 43.2083V12.7083C5.4165 11.3601 5.98719 10.0672 7.00301 9.11387C8.01883 8.16056 9.39658 7.625 10.8332 7.625ZM10.8332 15.25V20.3333H16.2498V15.25H10.8332ZM37.9165 20.3333V15.25H21.6665V20.3333H37.9165ZM10.8332 25.4167V30.5H16.2498V25.4167H10.8332ZM21.6665 25.4167V30.5H37.9165V25.4167H21.6665ZM10.8332 35.5833V40.6667H16.2498V35.5833H10.8332Z" fill="url(#paint0_linear_286_10)"/>
<defs>
<linearGradient id="paint0_linear_286_10" x1="32.4998" y1="7.625" x2="32.4998" y2="55.9167" gradientUnits="userSpaceOnUse">
<stop stop-color="#E17D21"/>
<stop offset="1" stop-color="#E41C1C" stop-opacity="0.5"/>
</linearGradient>
</defs>
</svg>
