<svg width="62" height="67" viewBox="0 0 62 67" fill="none" xmlns="http://www.w3.org/2000/svg">
<path d="M19.3748 11.166C15.6066 11.166 11.9926 12.7837 9.32803 15.6631C6.66345 18.5426 5.1665 22.448 5.1665 26.5202C5.1665 27.916 5.399 29.3118 5.73484 30.7077H16.2748L19.5557 21.2998C20.3307 19.0664 23.379 18.8431 24.3607 21.2998L29.7082 36.291L31.2323 32.3268C31.5682 31.4056 32.4723 30.7077 33.5832 30.7077H56.2648C56.6007 29.3118 56.8332 27.916 56.8332 26.5202C56.8332 22.448 55.3362 18.5426 52.6716 15.6631C50.0071 12.7837 46.3931 11.166 42.6248 11.166C37.8198 11.166 33.5832 13.7623 30.9998 17.6985C28.4165 13.7623 24.1798 11.166 19.3748 11.166ZM7.74984 34.8952C7.06469 34.8952 6.40761 35.1893 5.92314 35.7128C5.43868 36.2364 5.1665 36.9465 5.1665 37.6868C5.1665 38.4272 5.43868 39.1373 5.92314 39.6609C6.40761 40.1844 7.06469 40.4785 7.74984 40.4785H14.0532L28.4165 55.8327C30.9998 58.3452 30.9998 58.3452 33.5832 55.8327L47.9465 40.4785H54.2498C54.935 40.4785 55.5921 40.1844 56.0765 39.6609C56.561 39.1373 56.8332 38.4272 56.8332 37.6868C56.8332 36.9465 56.561 36.2364 56.0765 35.7128C55.5921 35.1893 54.935 34.8952 54.2498 34.8952H34.6165L32.214 41.316C31.1807 44.1356 28.2098 43.7448 27.254 41.3998L21.9582 26.5202L19.4782 33.0248C19.0907 34.0856 18.2123 34.8952 17.0498 34.8952H7.74984Z" fill="url(#paint0_linear_286_6)"/>
<defs>
<linearGradient id="paint0_linear_286_6" x1="30.9998" y1="11.166" x2="30.9998" y2="57.7171" gradientUnits="userSpaceOnUse">
<stop stop-color="#E17D21"/>
<stop offset="1" stop-color="#E41C1C" stop-opacity="0.74"/>
</linearGradient>
</defs>
</svg>
