<svg width="32" height="31" viewBox="0 0 32 31" fill="none" xmlns="http://www.w3.org/2000/svg">
<path d="M16.2368 8.60609C14.7558 8.60609 13.3081 9.0221 12.0767 9.8015C10.8453 10.5809 9.88552 11.6887 9.31876 12.9848C8.75201 14.2809 8.60372 15.7071 8.89265 17.083C9.18158 18.459 9.89475 19.7228 10.942 20.7148C11.9892 21.7068 13.3234 22.3824 14.776 22.6561C16.2285 22.9297 17.7341 22.7893 19.1024 22.2524C20.4706 21.7156 21.6401 20.8064 22.4629 19.6399C23.2857 18.4735 23.7249 17.1021 23.7249 15.6992C23.7249 13.818 22.9359 12.0138 21.5317 10.6836C20.1274 9.3534 18.2228 8.60609 16.2368 8.60609ZM16.2368 20.428C15.2495 20.428 14.2843 20.1506 13.4634 19.631C12.6425 19.1114 12.0026 18.3729 11.6248 17.5088C11.2469 16.6448 11.1481 15.694 11.3407 14.7767C11.5333 13.8594 12.0088 13.0168 12.7069 12.3555C13.4051 11.6942 14.2946 11.2438 15.2629 11.0613C16.2313 10.8789 17.235 10.9725 18.1472 11.3304C19.0594 11.6883 19.839 12.2944 20.3875 13.0721C20.9361 13.8497 21.2288 14.764 21.2288 15.6992C21.2247 16.9522 20.6975 18.1527 19.7622 19.0386C18.8269 19.9246 17.5595 20.4241 16.2368 20.428ZM23.1009 0.921875H9.37277C7.05583 0.921875 4.83378 1.79374 3.19545 3.34566C1.55712 4.89758 0.636719 7.00244 0.636719 9.19719V22.2013C0.636719 24.396 1.55712 26.5009 3.19545 28.0528C4.83378 29.6047 7.05583 30.4766 9.37277 30.4766H23.1009C25.4178 30.4766 27.6399 29.6047 29.2782 28.0528C30.9165 26.5009 31.8369 24.396 31.8369 22.2013V9.19719C31.8369 7.00244 30.9165 4.89758 29.2782 3.34566C27.6399 1.79374 25.4178 0.921875 23.1009 0.921875ZM29.3409 22.2013C29.3409 22.9775 29.1795 23.7461 28.8659 24.4633C28.5523 25.1804 28.0927 25.832 27.5132 26.3809C26.9338 26.9298 26.2459 27.3652 25.4888 27.6622C24.7317 27.9593 23.9203 28.1122 23.1009 28.1122H9.37277C8.55332 28.1122 7.74189 27.9593 6.98481 27.6622C6.22774 27.3652 5.53984 26.9298 4.9604 26.3809C4.38096 25.832 3.92132 25.1804 3.60773 24.4633C3.29414 23.7461 3.13273 22.9775 3.13273 22.2013V9.19719C3.13273 7.62951 3.79017 6.12604 4.9604 5.01752C6.13063 3.90901 7.71781 3.28625 9.37277 3.28625H23.1009C23.9203 3.28625 24.7317 3.43914 25.4888 3.73619C26.2459 4.03325 26.9338 4.46864 27.5132 5.01752C28.0927 5.56641 28.5523 6.21802 28.8659 6.93517C29.1795 7.65232 29.3409 8.42095 29.3409 9.19719V22.2013ZM26.2209 8.015C26.2209 8.36572 26.1111 8.70857 25.9054 9.00018C25.6997 9.2918 25.4073 9.51908 25.0653 9.6533C24.7232 9.78751 24.3468 9.82263 23.9837 9.75421C23.6205 9.68579 23.287 9.5169 23.0252 9.2689C22.7633 9.0209 22.5851 8.70493 22.5128 8.36095C22.4406 8.01697 22.4777 7.66042 22.6194 7.33639C22.761 7.01237 23.001 6.73542 23.3088 6.54057C23.6167 6.34572 23.9786 6.24172 24.3489 6.24172C24.8454 6.24172 25.3215 6.42855 25.6726 6.7611C26.0236 7.09366 26.2209 7.5447 26.2209 8.015Z" fill="white"/>
</svg>
