<svg width="24" height="24" viewBox="0 0 24 24" fill="none" xmlns="http://www.w3.org/2000/svg">
<path d="M17 7H19V5H17V7ZM18 21C16.6167 21 15.4377 20.5127 14.463 19.538C13.4877 18.5627 13 17.3833 13 16C13 14.6167 13.4877 13.4373 14.463 12.462C15.4377 11.4873 16.6167 11 18 11C19.3833 11 20.5627 11.4873 21.538 12.462C22.5127 13.4373 23 14.6167 23 16C23 17.3833 22.5127 18.5627 21.538 19.538C20.5627 20.5127 19.3833 21 18 21ZM17.5 19H18.5V16.5H21V15.5H18.5V13H17.5V15.5H15V16.5H17.5V19ZM23 11.125C22.35 10.425 21.5917 9.89567 20.725 9.537C19.8583 9.179 18.95 9 18 9C17.8167 9 17.646 9.004 17.488 9.012C17.3293 9.02067 17.1667 9.04167 17 9.075V8L10 2.95V1H23V11.125ZM1 19V9L8 4L15 9V9.675C13.8 10.2417 12.8333 11.104 12.1 12.262C11.3667 13.4207 11 14.6667 11 16C11 16.5167 11.0543 17.0293 11.163 17.538C11.271 18.046 11.4417 18.5333 11.675 19H10V13H6V19H1Z" fill="#FFFBFB"/>
</svg>
