<svg width="37" height="35" viewBox="0 0 37 35" fill="none" xmlns="http://www.w3.org/2000/svg">
<path d="M18.0512 20.5362C16.9105 20.4211 15.8839 20.1497 15.0039 19.4847C14.8943 19.4023 14.7817 19.3228 14.6824 19.229C14.2973 18.8738 14.2573 18.4631 14.5639 18.0425C14.8232 17.6816 15.2602 17.585 15.7165 17.791C15.8044 17.8326 15.8887 17.8811 15.9683 17.936C17.6082 19.0244 19.8614 19.0542 21.5088 17.9843C21.6671 17.8603 21.8501 17.7685 22.0465 17.7143C22.2287 17.6631 22.4235 17.6723 22.5995 17.7404C22.7756 17.8084 22.9226 17.9314 23.0168 18.0894C23.2583 18.4688 23.2539 18.8382 22.9576 19.1324C22.5032 19.5757 21.9537 19.9189 21.3473 20.1383C20.7725 20.3543 20.1414 20.4623 19.5177 20.5348C19.6126 20.6342 19.657 20.6826 19.7163 20.7394C20.5621 21.5607 21.4125 22.3791 22.2569 23.2032C22.5443 23.4846 22.605 23.8327 22.4465 24.1595C22.2732 24.5147 21.885 24.7506 21.5058 24.725C21.2756 24.7028 21.0628 24.5977 20.9103 24.4309C20.2718 23.81 19.6214 23.2004 18.9948 22.5681C18.8126 22.3834 18.7237 22.4189 18.5637 22.578C17.9208 23.2174 17.2675 23.8469 16.6098 24.4735C16.315 24.7534 15.9639 24.8046 15.6217 24.644C15.4464 24.5648 15.2986 24.4387 15.1961 24.2809C15.0937 24.1232 15.0408 23.9404 15.0439 23.7545C15.0631 23.5245 15.1746 23.3105 15.355 23.1578L17.8645 20.7294C17.9193 20.6754 17.9712 20.6186 18.0512 20.5362Z" fill="#FEF9F9"/>
<path d="M18.7301 17.6982C17.7515 17.69 16.8161 17.3111 16.1276 16.6441C15.4391 15.9771 15.0535 15.0761 15.0547 14.1375C15.0594 13.1948 15.4536 12.2924 16.1509 11.6281C16.8482 10.9638 17.7917 10.5919 18.7745 10.5938C19.2633 10.5963 19.7468 10.6916 20.1971 10.8741C20.6474 11.0566 21.0556 11.3226 21.3983 11.657C21.741 11.9914 22.0113 12.3874 22.1938 12.8224C22.3763 13.2574 22.4674 13.7226 22.4617 14.1915C22.4513 16.1324 20.7774 17.7054 18.7301 17.6982ZM20.5729 14.1432C20.5735 13.9148 20.527 13.6886 20.436 13.4776C20.345 13.2666 20.2114 13.0749 20.0429 12.9136C19.8743 12.7523 19.6742 12.6247 19.4539 12.5379C19.2337 12.4512 18.9978 12.4071 18.7597 12.4082C18.5197 12.4071 18.2819 12.4518 18.0601 12.5397C17.8384 12.6277 17.6371 12.7571 17.468 12.9204C17.299 13.0838 17.1655 13.2778 17.0754 13.4911C16.9854 13.7045 16.9405 13.9329 16.9435 14.1631C16.9446 14.3914 16.9929 14.6173 17.0855 14.8277C17.1781 15.0381 17.3132 15.2288 17.4829 15.3889C17.6527 15.549 17.8539 15.6752 18.0748 15.7604C18.2957 15.8456 18.532 15.888 18.7701 15.8852C19.008 15.8854 19.2436 15.8404 19.4633 15.7527C19.683 15.6651 19.8824 15.5366 20.0501 15.3746C20.2177 15.2126 20.3502 15.0204 20.4399 14.8091C20.5297 14.5977 20.5749 14.3714 20.5729 14.1432Z" fill="#FEF9F9"/>
<path d="M18.7476 29.0664C21.8908 29.0664 24.9052 27.8688 27.1277 25.737C29.3503 23.6053 30.5989 20.714 30.5989 17.6992C30.5989 14.6845 29.3503 11.7932 27.1277 9.6614C24.9052 7.52964 21.8908 6.33203 18.7476 6.33203C15.6045 6.33203 12.5901 7.52964 10.3675 9.6614C8.14501 11.7932 6.8964 14.6845 6.8964 17.6992C6.8964 20.714 8.14501 23.6053 10.3675 25.737C12.5901 27.8688 15.6045 29.0664 18.7476 29.0664ZM18.7476 31.9082C10.5658 31.9082 3.93359 25.5468 3.93359 17.6992C3.93359 9.8516 10.5658 3.49023 18.7476 3.49023C26.9294 3.49023 33.5617 9.8516 33.5617 17.6992C33.5617 25.5468 26.9294 31.9082 18.7476 31.9082Z" fill="#FEF9F9"/>
</svg>
