<svg width="31" height="29" viewBox="0 0 31 29" fill="none" xmlns="http://www.w3.org/2000/svg">
<path d="M27.5978 4.15242C27.3336 3.94643 27.0137 3.81015 26.672 3.75808C26.3304 3.70601 25.9798 3.74009 25.6575 3.85669L3.68241 11.7974C3.29697 11.9326 2.97049 12.1805 2.75324 12.5031C2.53599 12.8257 2.44001 13.205 2.48009 13.5827C2.51585 13.9603 2.68367 14.317 2.95839 14.5994C3.23311 14.8818 3.59993 15.0746 4.00382 15.149L9.58687 16.1676V22.5859C9.58667 22.9331 9.69858 23.2726 9.9084 23.5612C10.1182 23.8498 10.4165 24.0745 10.7654 24.2069C10.9963 24.2924 11.2426 24.337 11.4915 24.3383C11.7417 24.3392 11.9895 24.2941 12.2205 24.2057C12.4515 24.1173 12.661 23.9874 12.8367 23.8236L15.9318 20.9868L20.6101 24.7765C20.9555 25.0567 21.3995 25.2124 21.86 25.2146C22.0625 25.2184 22.2642 25.1887 22.4553 25.1269C22.7694 25.0355 23.0521 24.8702 23.2755 24.6473C23.4989 24.4245 23.6552 24.1519 23.729 23.8564L28.205 5.872C28.2832 5.56167 28.268 5.23759 28.161 4.93461C28.0541 4.63162 27.8594 4.3612 27.5978 4.15242ZM10.313 14.5137L4.38476 13.4294L21.0029 7.41634L10.313 14.5137ZM11.4915 22.5859V17.3943L14.4914 19.8258L11.4915 22.5859ZM21.8719 23.4621L12.0629 15.5214L26.1932 6.13487L21.8719 23.4621Z" fill="#FCF6F6"/>
</svg>
