<svg width="40" height="35" viewBox="0 0 40 35" fill="none" xmlns="http://www.w3.org/2000/svg">
<path d="M28.7247 3.82031H19.6523C11.3665 3.82031 9.39556 5.67032 9.39556 13.434V21.9499C9.39556 29.726 11.3517 31.5774 19.6375 31.5774H28.7099C36.9942 31.5774 38.9666 29.7413 38.9666 21.9637V13.4479C38.9666 5.67032 37.0105 3.82031 28.7247 3.82031ZM33.2683 23.625H31.1111C30.2949 23.625 30.0495 23.0046 28.5857 21.6306C27.3082 20.4746 26.7686 20.3302 26.4448 20.3302C25.9982 20.3302 25.8755 20.4454 25.8755 21.0242V22.845C25.8755 23.3377 25.7055 23.6264 24.3349 23.6264C23.0047 23.5425 21.7147 23.1631 20.5713 22.5196C19.4279 21.8761 18.4638 20.9868 17.7583 19.925C16.0833 17.9681 14.9179 15.6714 14.3546 13.2175C14.3546 12.9135 14.4773 12.6387 15.0939 12.6387H17.2496C17.8041 12.6387 18.0037 12.8705 18.221 13.4048C19.2679 16.2971 21.0539 18.8119 21.7784 18.8119C22.0564 18.8119 22.1776 18.6967 22.1776 18.0458V15.0675C22.086 13.7088 21.3171 13.5936 21.3171 13.1023C21.327 12.9727 21.3903 12.8518 21.4935 12.7653C21.5967 12.6787 21.7318 12.6334 21.8701 12.6387H25.259C25.7217 12.6387 25.8755 12.8552 25.8755 13.3757V17.3949C25.8755 17.8293 26.0751 17.9737 26.2141 17.9737C26.4921 17.9737 26.7065 17.8293 27.2151 17.3519C28.3075 16.1014 29.2001 14.7081 29.8646 13.2161C29.9326 13.0369 30.0611 12.8834 30.2306 12.7792C30.4001 12.6749 30.6013 12.6256 30.8035 12.6387H32.9607C33.6069 12.6387 33.7444 12.9427 33.6069 13.3757C32.8225 15.0251 31.8519 16.5907 30.7119 18.0458C30.4797 18.3789 30.3866 18.5524 30.7119 18.9424C30.9262 19.2463 31.6818 19.8389 32.1904 20.4024C32.9295 21.0944 33.5433 21.8951 34.0075 22.7729C34.1924 23.3363 33.8833 23.625 33.2683 23.625Z" fill="#FDFCFC"/>
</svg>
