<svg width="34" height="29" viewBox="0 0 34 29" fill="none" xmlns="http://www.w3.org/2000/svg">
<path d="M33.4971 14.5784C33.4971 14.4835 33.4971 14.3756 33.4934 14.2505C33.4898 13.9009 33.4825 13.5083 33.4752 13.0897C33.4461 11.8858 33.395 10.6862 33.3149 9.5557C33.2055 7.99798 33.0452 6.69915 32.8266 5.72396C32.5958 4.70625 32.1435 3.77809 31.5149 3.03223C30.8863 2.28636 30.1034 1.74893 29.2444 1.47365C28.2131 1.14571 26.1942 0.942904 23.3518 0.817768C21.9999 0.757358 20.5531 0.718523 19.1064 0.696947C18.5999 0.688317 18.1298 0.684003 17.7071 0.679688H16.6357C16.213 0.684003 15.7429 0.688317 15.2364 0.696947C13.7896 0.718523 12.3429 0.757358 10.9909 0.817768C8.14853 0.947219 6.12604 1.15003 5.0984 1.47365C4.23912 1.74826 3.45588 2.28546 2.82718 3.03143C2.19847 3.77739 1.74639 4.70592 1.51622 5.72396C1.29393 6.69915 1.13723 7.99798 1.02791 9.5557C0.947739 10.6862 0.896721 11.8858 0.867568 13.0897C0.856635 13.5083 0.852991 13.9009 0.849347 14.2505C0.849347 14.3756 0.845703 14.4835 0.845703 14.5784V14.82C0.845703 14.915 0.845703 15.0228 0.849347 15.148C0.852991 15.4975 0.86028 15.8902 0.867568 16.3087C0.896721 17.5126 0.947739 18.7122 1.02791 19.8427C1.13723 21.4005 1.29757 22.6993 1.51622 23.6745C1.98267 25.7414 3.35286 27.3725 5.0984 27.9248C6.12604 28.2527 8.14853 28.4555 10.9909 28.5807C12.3429 28.6411 13.7896 28.6799 15.2364 28.7015C15.7429 28.7101 16.213 28.7144 16.6357 28.7188H17.7071C18.1298 28.7144 18.5999 28.7101 19.1064 28.7015C20.5531 28.6799 21.9999 28.6411 23.3518 28.5807C26.1942 28.4512 28.2167 28.2484 29.2444 27.9248C30.9899 27.3725 32.3601 25.7457 32.8266 23.6745C33.0488 22.6993 33.2055 21.4005 33.3149 19.8427C33.395 18.7122 33.4461 17.5126 33.4752 16.3087C33.4861 15.8902 33.4898 15.4975 33.4934 15.148C33.4934 15.0228 33.4971 14.915 33.4971 14.82V14.5784ZM30.8733 14.8028C30.8733 14.8934 30.8733 14.9926 30.8697 15.1091C30.866 15.4457 30.8587 15.8168 30.8514 16.2181C30.8259 17.3659 30.7749 18.5137 30.6984 19.5795C30.6 20.969 30.4615 22.1081 30.2902 22.8719C30.0643 23.8687 29.4011 24.6583 28.5629 24.9215C27.7977 25.1632 25.8699 25.3573 23.2498 25.4738C21.9233 25.5343 20.4948 25.5731 19.07 25.5947C18.5707 25.6033 18.1079 25.6076 17.6925 25.6076H16.6503L15.2728 25.5947C13.8479 25.5731 12.4231 25.5343 11.093 25.4738C8.47286 25.353 6.54147 25.1632 5.77985 24.9215C4.9417 24.654 4.27847 23.8687 4.05253 22.8719C3.88126 22.1081 3.74278 20.969 3.64439 19.5795C3.56787 18.5137 3.52049 17.3659 3.49134 16.2181C3.48041 15.8168 3.47676 15.4414 3.47312 15.1091C3.47312 14.9926 3.46947 14.8891 3.46947 14.8028V14.5957C3.46947 14.505 3.46947 14.4058 3.47312 14.2893C3.47676 13.9527 3.48405 13.5816 3.49134 13.1803C3.51685 12.0325 3.56787 10.8847 3.64439 9.81892C3.74278 8.42948 3.88126 7.29031 4.05253 6.52655C4.27847 5.52978 4.9417 4.74013 5.77985 4.47691C6.54512 4.23527 8.47286 4.04109 11.093 3.92459C12.4194 3.86418 13.8479 3.82534 15.2728 3.80377C15.772 3.79514 16.2348 3.79082 16.6503 3.79082H17.6925L19.07 3.80377C20.4948 3.82534 21.9197 3.86418 23.2498 3.92459C25.8699 4.04541 27.8013 4.23527 28.5629 4.47691C29.4011 4.74445 30.0643 5.52978 30.2902 6.52655C30.4615 7.29031 30.6 8.42948 30.6984 9.81892C30.7749 10.8847 30.8223 12.0325 30.8514 13.1803C30.8624 13.5816 30.866 13.957 30.8697 14.2893C30.8697 14.4058 30.8733 14.5094 30.8733 14.5957V14.8028ZM13.9281 20.4814L22.3825 14.6561L13.9281 8.91708V20.4814Z" fill="#FDF4F4"/>
</svg>
