<svg width="12" height="11" viewBox="0 0 12 11" fill="none" xmlns="http://www.w3.org/2000/svg">
<path d="M6 2.86C5.43039 2.86 4.87357 3.01483 4.39996 3.30492C3.92634 3.59501 3.55721 4.00732 3.33923 4.48972C3.12125 4.97211 3.06421 5.50293 3.17534 6.01504C3.28646 6.52715 3.56076 6.99755 3.96353 7.36676C4.36631 7.73597 4.87947 7.98741 5.43814 8.08927C5.99681 8.19114 6.57588 8.13886 7.10213 7.93904C7.62838 7.73923 8.07817 7.40085 8.39463 6.96671C8.71109 6.53256 8.88 6.02214 8.88 5.5C8.88 4.79983 8.57657 4.12833 8.03647 3.63324C7.49636 3.13814 6.76382 2.86 6 2.86ZM6 7.26C5.62026 7.26 5.24905 7.15678 4.93331 6.96339C4.61756 6.77 4.37147 6.49512 4.22615 6.17352C4.08083 5.85192 4.04281 5.49805 4.11689 5.15664C4.19098 4.81523 4.37384 4.50163 4.64235 4.25549C4.91087 4.00935 5.25298 3.84173 5.62543 3.77382C5.99787 3.70591 6.38392 3.74076 6.73475 3.87397C7.08559 4.00718 7.38545 4.23277 7.59642 4.5222C7.80739 4.81163 7.92 5.1519 7.92 5.5C7.91842 5.96633 7.71562 6.41316 7.3559 6.74291C6.99617 7.07266 6.50873 7.25855 6 7.26ZM8.64 0H3.36C2.46887 0 1.61424 0.324499 0.984121 0.902111C0.353999 1.47972 0 2.26313 0 3.08V7.92C0 8.73687 0.353999 9.52028 0.984121 10.0979C1.61424 10.6755 2.46887 11 3.36 11H8.64C9.53113 11 10.3858 10.6755 11.0159 10.0979C11.646 9.52028 12 8.73687 12 7.92V3.08C12 2.26313 11.646 1.47972 11.0159 0.902111C10.3858 0.324499 9.53113 0 8.64 0ZM11.04 7.92C11.04 8.20891 10.9779 8.49499 10.8573 8.7619C10.7367 9.02882 10.5599 9.27135 10.3371 9.47563C10.1142 9.67992 9.84962 9.84197 9.55844 9.95254C9.26726 10.0631 8.95517 10.12 8.64 10.12H3.36C3.04483 10.12 2.73274 10.0631 2.44156 9.95254C2.15038 9.84197 1.8858 9.67992 1.66294 9.47563C1.44008 9.27135 1.2633 9.02882 1.14269 8.7619C1.02208 8.49499 0.96 8.20891 0.96 7.92V3.08C0.96 2.49652 1.21286 1.93695 1.66294 1.52437C2.11303 1.11179 2.72348 0.88 3.36 0.88H8.64C8.95517 0.88 9.26726 0.936905 9.55844 1.04747C9.84962 1.15803 10.1142 1.32008 10.3371 1.52437C10.5599 1.72865 10.7367 1.97118 10.8573 2.2381C10.9779 2.50501 11.04 2.79109 11.04 3.08V7.92ZM9.84 2.64C9.84 2.77054 9.79777 2.89814 9.71866 3.00668C9.63954 3.11521 9.52709 3.19981 9.39553 3.24976C9.26397 3.29971 9.1192 3.31278 8.97954 3.28732C8.83987 3.26185 8.71158 3.19899 8.61088 3.10669C8.51019 3.01439 8.44162 2.89679 8.41383 2.76876C8.38605 2.64073 8.40031 2.50803 8.45481 2.38743C8.5093 2.26683 8.60159 2.16375 8.71999 2.09123C8.83839 2.01871 8.9776 1.98 9.12 1.98C9.31096 1.98 9.49409 2.04954 9.62912 2.17331C9.76414 2.29708 9.84 2.46496 9.84 2.64Z" fill="white"/>
</svg>
