<svg width="74" height="74" viewBox="0 0 74 74" fill="none" xmlns="http://www.w3.org/2000/svg">
<path d="M22.7682 70.6254L22.768 70.6253C18.322 68.708 14.4595 66.1074 11.1761 62.8239C7.89259 59.5405 5.292 55.678 3.37473 51.232L3.37464 51.2318C1.45911 46.7955 0.5 42.0532 0.5 37C0.5 31.9468 1.45911 27.2045 3.37464 22.7682L3.37473 22.768C5.292 18.322 7.89259 14.4595 11.1761 11.1761C14.4595 7.8926 18.322 5.29077 22.768 3.37103C27.2044 1.45791 31.9467 0.5 37 0.5C42.0532 0.5 46.7955 1.45788 51.2318 3.37094C55.6779 5.29068 59.5404 7.89254 62.8239 11.1761C66.1074 14.4595 68.708 18.322 70.6253 22.768L70.6254 22.7682C72.5409 27.2045 73.5 31.9468 73.5 37C73.5 42.0532 72.5409 46.7955 70.6254 51.2318L70.6253 51.232C68.708 55.678 66.1074 59.5405 62.8239 62.8239C59.5405 66.1074 55.678 68.708 51.232 70.6253L51.2318 70.6254C46.7955 72.5409 42.0532 73.5 37 73.5C31.9468 73.5 27.2045 72.5409 22.7682 70.6254ZM28.25 21.2658L52.7254 37L28.25 52.7342V21.2658ZM37 67.1C45.3931 67.1 52.5203 64.1818 58.3511 58.3511C64.1818 52.5203 67.1 45.3931 67.1 37C67.1 28.6069 64.1818 21.4797 58.3511 15.6489C52.5203 9.81821 45.3931 6.9 37 6.9C28.6069 6.9 21.4797 9.81821 15.6489 15.6489C9.81822 21.4797 6.9 28.6069 6.9 37C6.9 45.3931 9.81822 52.5203 15.6489 58.3511C21.4797 64.1818 28.6069 67.1 37 67.1Z" fill="#FFFCFC" stroke="#F78C0E"/>
</svg>
